<svg xmlns="http://www.w3.org/2000/svg" width="15" height="15" viewBox="0 0 15 15">
  <g id="done_-_white" data-name="done - white" transform="translate(-260.385 -534.844)">
    <path id="Subtraction_1" data-name="Subtraction 1" d="M7.5,15A7.5,7.5,0,1,1,15,7.5,7.508,7.508,0,0,1,7.5,15ZM3.909,7.145a.71.71,0,0,0-.505.209l-.338.337a.715.715,0,0,0,0,1.011l2.691,2.691a.476.476,0,0,0,.674,0l5.551-5.551a.714.714,0,0,0,0-1.011l-.337-.337a.715.715,0,0,0-1.011,0L6.094,9.035,4.414,7.355A.71.71,0,0,0,3.909,7.145Z" transform="translate(260.385 534.844)" fill="#fff"/>
  </g>
</svg>
