<svg xmlns="http://www.w3.org/2000/svg" width="14.519" height="14.517" viewBox="0 0 14.519 14.517">
  <g id="edit" transform="translate(0 -0.041)">
    <path id="Path_24951" data-name="Path 24951" d="M653.055,561.949c-.03.122-.055.247-.092.367a2.088,2.088,0,0,1-.544.866l-6.707,6.7a.957.957,0,0,1-.352.222c-.981.336-1.967.659-2.951.989a.562.562,0,0,1-.552-.056.529.529,0,0,1-.159-.638c.266-.8.555-1.585.789-2.391a3.075,3.075,0,0,1,.848-1.367c2.1-2.074,4.184-4.167,6.267-6.258a2.019,2.019,0,0,1,1.56-.642,1.983,1.983,0,0,1,1.867,1.676.486.486,0,0,0,.026.078Z" transform="translate(-638.536 -559.7)" fill="#004475"/>
    <path id="Path_24952" data-name="Path 24952" d="M560.995,600.372a3.241,3.241,0,0,1-.428-.135,1.507,1.507,0,0,1-.929-1.407c-.015-.52,0-1.039,0-1.56V588.5a1.547,1.547,0,0,1,1.273-1.577,1.871,1.871,0,0,1,.352-.027q3.033,0,6.066,0a.522.522,0,0,1,.6.473.511.511,0,0,1-.477.559c-.057,0-.114,0-.17,0h-6.01a.526.526,0,0,0-.568.372,1.119,1.119,0,0,0-.024.281v10.107a1.706,1.706,0,0,0,.009.212.5.5,0,0,0,.431.426,1.64,1.64,0,0,0,.2.009H570.4a1.719,1.719,0,0,0,.2-.008.5.5,0,0,0,.437-.448c.006-.066.005-.132.005-.2v-4.933a.956.956,0,0,1,.038-.292.511.511,0,0,1,.976.05,1.028,1.028,0,0,1,.023.239q0,2.495,0,4.99a1.553,1.553,0,0,1-1.322,1.623.143.143,0,0,0-.038.02Z" transform="translate(-559.63 -585.817)" fill="#004475"/>
  </g>
</svg>
