<svg id="logout_icon" xmlns="http://www.w3.org/2000/svg" width="14.474" height="14.473" viewBox="0 0 14.474 14.473">
  <path id="Path_24949" data-name="Path 24949" d="M499,508.473h-.368c-.085-.027-.17-.052-.252-.08-1.176-.391-2.352-.78-3.527-1.175a1.2,1.2,0,0,1-.831-.915.415.415,0,0,0-.026-.064V495.018c.012-.034.025-.068.035-.1a1.213,1.213,0,0,1,.786-.851c.065-.024.131-.042.2-.064h7.038a1.1,1.1,0,0,0,.107.028,1.793,1.793,0,0,1,1.471,1.611c.025.673.01,1.347.008,2.021a.528.528,0,0,1-.219.424.573.573,0,0,1-.624.081.556.556,0,0,1-.353-.533c0-.579,0-1.159,0-1.738a.612.612,0,0,0-.677-.685h-2.516c-.041,0-.081,0-.127.006.01.015.013.025.019.028a1.227,1.227,0,0,1,.884,1.335v8.879h1.717a.619.619,0,0,0,.7-.707v-2.233a.938.938,0,0,1,.022-.238.6.6,0,0,1,.631-.436.586.586,0,0,1,.544.584q.009,1.208,0,2.417a1.8,1.8,0,0,1-1.831,1.822c-.542,0-1.084,0-1.625,0h-.161c0,.233.006.445,0,.656a1.094,1.094,0,0,1-.477.9A3.4,3.4,0,0,1,499,508.473Z" transform="translate(-494 -494)" fill="#004475"/>
  <path id="Path_24950" data-name="Path 24950" d="M778.075,603.786a3.908,3.908,0,0,1-.332.445c-.735.745-1.477,1.481-2.215,2.221a.62.62,0,0,1-.572.206.6.6,0,0,1-.5-.613c0-.537,0-1.074,0-1.611v-.175H772.1a.607.607,0,0,1-.639-.485.6.6,0,0,1,.606-.723c.74,0,1.479,0,2.219,0h.174V602.9c0-.532,0-1.065,0-1.6a.609.609,0,0,1,1.067-.447c.782.784,1.567,1.564,2.345,2.351a1.769,1.769,0,0,1,.207.329Z" transform="translate(-763.602 -597.624)" fill="#004475"/>
</svg>
