<svg xmlns="http://www.w3.org/2000/svg" width="12.134" height="14.544" viewBox="0 0 12.134 14.544">
  <g id="myProfile" transform="translate(0 0)">
    <path id="Path_2" data-name="Path 2" d="M90.535,7.006A3.39,3.39,0,0,0,93.012,5.98,3.39,3.39,0,0,0,94.038,3.5a3.39,3.39,0,0,0-1.026-2.477,3.5,3.5,0,0,0-4.954,0A3.39,3.39,0,0,0,87.032,3.5,3.39,3.39,0,0,0,88.058,5.98,3.391,3.391,0,0,0,90.535,7.006ZM88.661,1.629A2.532,2.532,0,0,1,90.535.852c.738,0-1.643-.412-1.12.111s.357-1.21.357-.472-.378.363-.9.886-.249.4-.988.4.7,1.037.174.514-.174,1.95-.174,1.211a2.532,2.532,0,0,1,.777-1.874Zm0,0" transform="translate(-84.56)" fill="#004475"/>
    <path id="Path_3" data-name="Path 3" d="M12.1,251.475a8.652,8.652,0,0,0-.118-.919,7.24,7.24,0,0,0-.226-.924,4.564,4.564,0,0,0-.38-.862,3.249,3.249,0,0,0-.573-.746,2.526,2.526,0,0,0-.823-.517,2.844,2.844,0,0,0-1.05-.19,1.066,1.066,0,0,0-.569.241c-.171.111-.37.24-.593.382a3.4,3.4,0,0,1-.767.338,2.98,2.98,0,0,1-1.877,0,3.389,3.389,0,0,1-.767-.338c-.221-.141-.42-.27-.594-.383a1.065,1.065,0,0,0-.569-.241,2.84,2.84,0,0,0-1.05.19,2.524,2.524,0,0,0-.823.517,3.249,3.249,0,0,0-.573.746,4.573,4.573,0,0,0-.38.862,7.259,7.259,0,0,0-.226.924,8.593,8.593,0,0,0-.118.919c-.019.278-.029.567-.029.859a2.415,2.415,0,0,0,.717,1.827,2.582,2.582,0,0,0,1.848.674h7a2.582,2.582,0,0,0,1.848-.674,2.414,2.414,0,0,0,.717-1.827c0-.293-.01-.582-.029-.859Zm-1.276,2.069a1.738,1.738,0,0,1-1.261.439h-7a1.738,1.738,0,0,1-1.261-.439,1.577,1.577,0,0,1-.453-1.21c0-.273.009-.542.027-.8a7.75,7.75,0,0,1,.107-.828,6.4,6.4,0,0,1,.2-.815c.076-.238.955.1,1.084-.122S.9,249.7,1.053,249.555s-.817,3.729-.6,3.643c.2-.079,1.45.907,1.695.9a3.143,3.143,0,0,1,.563.062c.175.114.534-.2.757-.062.252.16,1.01.053,1.4.178a3.832,3.832,0,0,0,2.4,0c.388-.125,1.035.161,1.287,0,.228-.146.111-.064.286-.178a11.278,11.278,0,0,1,1.257.178c.245.007,1.228-.87,1.429-.79.217.086.088-2.842.234-2.7a19.243,19.243,0,0,0-1.121-1.593,3.711,3.711,0,0,1,.309.7,6.387,6.387,0,0,1,.2.815,7.817,7.817,0,0,1,.107.828h0c.018.257.027.526.027.8a1.577,1.577,0,0,1-.453,1.21Zm0,0" transform="translate(0 -240.291)" fill="#004475"/>
  </g>
</svg>
